<svg width="420" height="420" viewBox="0 0 420 420" xmlns="http://www.w3.org/2000/svg" fill="none">
  <circle cx="210" cy="210" r="180" stroke="#e5e7eb" stroke-width="0.8"/>
  <circle cx="210" cy="210" r="120" stroke="#e5e7eb" stroke-width="0.8"/>
  <circle cx="210" cy="210" r="60" stroke="#e5e7eb" stroke-width="0.8"/>
  <line x1="210" y1="30" x2="210" y2="390" stroke="#e5e7eb" stroke-width="0.8"/>
  <line x1="30" y1="210" x2="390" y2="210" stroke="#e5e7eb" stroke-width="0.8"/>
  <line x1="82" y1="82" x2="338" y2="338" stroke="#e5e7eb" stroke-width="0.8"/>
  <line x1="338" y1="82" x2="82" y2="338" stroke="#e5e7eb" stroke-width="0.8"/>
  <polygon
    points="210,39 337,73 363,210 337,337 210,372 108,275 48,210 83,83"
    fill="#1d4ed8" fill-opacity="0.08" stroke="#1d4ed8" stroke-width="1.5"/>
  <circle cx="210" cy="39" r="4" fill="#1d4ed8"/>
  <circle cx="337" cy="73" r="4" fill="#1d4ed8"/>
  <circle cx="363" cy="210" r="4" fill="#1d4ed8"/>
  <circle cx="337" cy="337" r="4" fill="#1d4ed8"/>
  <circle cx="210" cy="372" r="4" fill="#1d4ed8"/>
  <circle cx="108" cy="275" r="4" fill="#1d4ed8"/>
  <circle cx="48" cy="210" r="4" fill="#1d4ed8"/>
  <circle cx="83" cy="83" r="4" fill="#1d4ed8"/>
  <text x="210" y="22" text-anchor="middle" font-size="11" fill="#374151" font-family="monospace">Macro Shock</text>
  <text x="354" y="60" text-anchor="start" font-size="11" fill="#374151" font-family="monospace">Fin Statement</text>
  <text x="371" y="214" text-anchor="start" font-size="11" fill="#374151" font-family="monospace">Audio Finance</text>
  <text x="348" y="352" text-anchor="start" font-size="11" fill="#374151" font-family="monospace">Stock Pred</text>
  <text x="210" y="406" text-anchor="middle" font-size="11" fill="#374151" font-family="monospace">Causal Inf</text>
  <text x="96" y="290" text-anchor="end" font-size="11" fill="#374151" font-family="monospace">CS</text>
  <text x="34" y="214" text-anchor="end" font-size="11" fill="#374151" font-family="monospace">Finance</text>
  <text x="70" y="68" text-anchor="end" font-size="11" fill="#374151" font-family="monospace">ML / DL</text>
  <circle cx="210" cy="210" r="3" fill="#1d4ed8"/>
</svg>
